<svg width="62" height="62" viewBox="0 0 62 62" fill="none" xmlns="http://www.w3.org/2000/svg">
    <path
        d="M39.99 37.6456L18.0575 37.4519C18.0575 37.4519 17.8541 38.4933 18.2755 39.5444C18.663 40.5131 20.2275 41.9081 20.2275 41.9081L22.0633 45.9527L23.5745 55.3835L23.8652 58.1105C23.8652 58.1105 24.9405 60.1206 31.0194 60.1206C37.0983 60.1206 38.1591 58.0378 38.1591 58.0378L38.3674 56.2844L40.0578 46.5436L43.4388 40.7069C43.4388 40.7069 44.1799 40.1886 44.611 39.0842C44.9113 38.3141 44.7514 37.2291 44.7514 37.355C44.7514 37.481 39.99 37.6456 39.99 37.6456Z"
        fill="#E27F13" />
    <path
        d="M31.4069 47.866C36.333 47.895 38.7113 47.585 40.1595 46.5679C41.2494 45.8025 41.7822 44.9355 42.5233 43.7004C43.5502 41.9905 43.5066 40.6779 43.5066 40.6779C43.5066 40.6779 39.3991 42.7946 31.2761 42.688C23.3033 42.5863 19.0262 40.6875 19.0262 40.6875C19.0262 40.6875 19.4137 42.5669 20.058 43.7875C20.8039 45.1922 22.165 46.0835 22.165 46.0835C22.165 46.0835 24.7467 47.8272 31.4069 47.866ZM23.0127 48.2777C23.5019 48.4569 24.0105 48.6264 24.0105 48.6264L24.737 57.2822C24.737 57.2822 23.4341 56.8414 23.2839 56.3764C23.1967 56.11 22.7898 53.2377 22.4992 50.903C22.3442 49.6533 22.2037 48.8105 22.165 48.3649C22.1214 47.8805 22.5525 48.1082 23.0127 48.2777ZM28.2487 49.4983C26.6019 49.29 25.2892 49.0139 25.2892 49.0139C25.3134 49.1932 25.9092 57.5583 25.9092 57.5583C25.9092 57.5583 26.5486 57.9652 28.3456 58.188L28.2487 49.4983ZM32.5548 49.6388C31.3294 49.7066 29.9634 49.6194 29.5081 49.6049L29.4694 58.2897C29.9441 58.3188 30.4672 58.3333 31.0533 58.3285C31.557 58.3236 32.0317 58.2946 32.4919 58.2558L32.5548 49.6388ZM38.193 49.0769C37.9605 51.0532 37.4713 55.335 37.2775 57.103C38.193 56.7688 38.5563 56.5944 38.6773 56.1343C38.7984 55.6741 39.7527 49.0963 39.7769 48.7379C39.7963 48.5102 39.6897 48.4714 39.0988 48.7185C38.7258 48.8832 38.5466 48.951 38.193 49.0769ZM37.0353 49.2561C36.1925 49.3966 35.0833 49.5371 33.7755 49.6436L33.6156 58.1154C34.6716 57.941 35.5725 57.6843 36.3088 57.413C36.5073 55.3689 36.9045 50.8691 37.0353 49.2561Z"
        fill="#F5B03E" />
    <path
        d="M27.9145 7.58535C28.4667 7.53691 27.8467 5.21675 29.2369 5.18769C31.1404 5.1441 30.5979 8.06972 29.7309 8.95129C27.435 11.2908 23.8458 10.8403 22.9933 14.6572C22.4362 17.1421 24.955 18.0333 24.955 18.0333C24.955 18.0333 20.799 17.796 18.8615 21.8502C17.2776 25.1682 19.1909 27.4738 19.1909 27.4738C19.1909 27.4738 16.9967 27.8904 16.0909 31.0291C14.9333 35.0397 18.2803 37.6844 18.2803 37.6844L32.6711 38.8421L46.7712 32.3515L46.6889 29.1691C46.6889 29.1691 46.0398 28.2343 45.4004 27.6724C44.6884 27.0475 43.9183 26.5341 43.9183 26.5341L44.824 22.3055C44.824 22.3055 44.9694 19.7238 41.4383 17.0549C39.8544 15.8536 38.1348 15.5194 38.1348 15.5194C38.1348 15.5194 37.1273 9.48894 36.9239 9.07722C36.7156 8.6655 34.4439 5.023 34.0273 4.77597C33.6156 4.52894 30.7675 2.02956 30.7675 2.02956C30.7675 2.02956 28.7331 1.34175 27.3672 3.08066C26.0012 4.81957 26.4662 7.71129 27.9145 7.58535Z"
        fill="#FFCAF9" />
    <path
        d="M33.9111 13.6255C31.0145 17.5102 24.9453 18.0285 24.9453 18.0285C24.9453 18.0285 26.8828 19.375 32.6662 18.9197C38.7112 18.445 40.1111 15.7374 40.0287 12.7585C39.9464 9.77955 37.8829 6.62627 34.8362 4.1269C31.9833 1.79221 29.8278 1.9133 29.8278 1.9133C29.8278 1.9133 32.114 2.60596 33.8481 4.96486C35.679 7.44971 35.5579 11.4119 33.9111 13.6255ZM19.1909 27.4689C19.1909 27.4689 23.2015 29.7164 32.6711 29.6292C41.5594 29.5469 44.0442 26.6503 44.0442 26.6503C44.0442 26.6503 45.0565 25.2699 44.9742 22.9546C44.8919 20.5424 43.5404 19.1474 43.5404 19.1474C43.5404 19.1474 41.0265 22.3927 37.6359 24.2963C34.2453 26.1999 27.7062 27.0717 24.6934 27.2752C21.6322 27.4738 19.1909 27.4689 19.1909 27.4689ZM46.6889 29.1691C46.6889 29.1691 48.0161 30.6561 47.5559 33.0538C47.0183 35.868 44.7853 37.7667 44.7853 37.7667C44.7853 37.7667 42.4264 40.1305 30.7723 40.2177C20.3486 40.2952 18.1011 37.5294 18.1011 37.5294C18.1011 37.5294 28.9608 37.9896 36.1295 35.5677C42.1648 33.5333 43.4242 32.7099 45.2454 30.8935C45.8703 30.2735 46.6889 29.1691 46.6889 29.1691Z"
        fill="#EA84D4" />
    <path
        d="M18.5709 35.5241C19.4573 35.4224 18.9584 32.9279 20.0434 31.5183C21.1333 30.1088 21.637 29.7068 21.3997 29.1546C21.1672 28.6024 18.8858 28.5346 17.8976 30.9807C17.0791 33.0199 17.8734 35.6016 18.5709 35.5241ZM26.2725 19.8691C26.3209 20.7555 24.7128 20.5569 22.9206 22.7657C21.4675 24.5579 21.6661 26.4324 20.7748 26.5196C19.8884 26.6019 19.53 23.4632 20.7264 21.6807C22.4169 19.1522 26.2047 18.7163 26.2725 19.8691ZM29.9973 10.9082C30.3364 11.1213 29.8956 12.0803 28.3747 13.238C26.5631 14.6136 25.8947 15.6986 25.2262 15.5146C24.737 15.3789 24.272 14.3424 25.2601 13.2041C26.0158 12.3322 27.498 11.9302 28.21 11.596C29.2417 11.1068 29.6776 10.7047 29.9973 10.9082Z"
        fill="white" />
</svg>