<svg width="266" height="266" viewBox="0 0 266 266" fill="none" xmlns="http://www.w3.org/2000/svg">
<path fill-rule="evenodd" clip-rule="evenodd" d="M133 33.25C127.121 33.25 121.483 35.5854 117.326 39.7424C113.169 43.8995 110.833 49.5377 110.833 55.4166C110.833 61.2956 113.169 66.9338 117.326 71.0908C121.483 75.2479 127.121 77.5833 133 77.5833C138.879 77.5833 144.517 75.2479 148.674 71.0908C152.831 66.9338 155.167 61.2956 155.167 55.4166C155.167 49.5377 152.831 43.8995 148.674 39.7424C144.517 35.5854 138.879 33.25 133 33.25ZM99.75 55.4166C99.75 46.5982 103.253 38.1409 109.489 31.9053C115.724 25.6697 124.182 22.1666 133 22.1666C141.818 22.1666 150.276 25.6697 156.511 31.9053C162.747 38.1409 166.25 46.5982 166.25 55.4166C166.25 64.2351 162.747 72.6923 156.511 78.9279C150.276 85.1635 141.818 88.6666 133 88.6666C124.182 88.6666 115.724 85.1635 109.489 78.9279C103.253 72.6923 99.75 64.2351 99.75 55.4166ZM84.8318 107.852C86.5145 103.812 89.3553 100.361 92.9963 97.9327C96.6372 95.5048 100.915 94.2088 105.292 94.2083H160.708C165.085 94.2088 169.363 95.5048 173.004 97.9327C176.645 100.361 179.486 103.812 181.168 107.852L195.022 141.102C200.747 154.829 191.598 169.88 177.333 171.625V176.735C177.333 177.675 177.572 178.599 178.028 179.421C178.484 180.243 179.141 180.936 179.938 181.434L210.683 200.647C214.986 203.337 218.297 207.353 220.115 212.091C221.933 216.828 222.16 222.029 220.761 226.907C219.362 231.784 216.414 236.074 212.361 239.128C208.308 242.182 203.372 243.833 198.297 243.833H67.6804C62.6049 243.834 57.6676 242.18 53.6161 239.123C49.5645 236.066 46.6196 231.772 45.2271 226.891C43.8347 222.011 44.0707 216.809 45.8993 212.075C47.7279 207.34 51.0496 203.33 55.3612 200.653L86.3281 181.423C87.1288 180.925 87.7892 180.231 88.2469 179.407C88.7046 178.583 88.9445 177.655 88.9437 176.713V171.653C74.5188 170.074 65.2199 154.917 70.9777 141.096L84.8318 107.852ZM100.027 171.792V176.713C100.027 179.54 99.3055 182.32 97.9315 184.791C96.5574 187.262 94.576 189.341 92.1745 190.833L61.2132 210.062C58.946 211.468 57.1988 213.574 56.2363 216.061C55.2739 218.549 55.1489 221.283 55.8801 223.848C56.6113 226.413 58.159 228.67 60.2884 230.277C62.4178 231.883 65.013 232.751 67.6804 232.75H166.25C167.72 232.75 169.129 232.166 170.169 231.127C171.208 230.088 171.792 228.678 171.792 227.208V226.488C171.791 225.083 171.256 223.731 170.296 222.706C169.336 221.68 168.023 221.057 166.621 220.963L94.1141 216.114C92.6473 216.015 91.2797 215.338 90.3122 214.231C89.3446 213.125 88.8564 211.679 88.9548 210.212C89.0533 208.745 89.7304 207.378 90.8372 206.41C91.9441 205.443 93.3899 204.954 94.8567 205.053L167.358 209.902C171.567 210.183 175.511 212.053 178.392 215.134C181.274 218.215 182.876 222.275 182.875 226.493V227.208C182.875 229.148 182.543 231.015 181.933 232.75H198.297C200.965 232.75 203.56 231.882 205.691 230.276C207.822 228.671 209.372 226.415 210.107 223.851C210.843 221.287 210.723 218.553 209.767 216.062C208.812 213.572 207.071 211.46 204.809 210.046L174.064 190.827C171.673 189.333 169.701 187.255 168.334 184.789C166.967 182.322 166.25 179.549 166.25 176.729V171.792H150.972C148.06 171.792 145.177 171.218 142.487 170.104C139.797 168.989 137.353 167.356 135.294 165.297L133 163.003L130.706 165.297C128.647 167.356 126.203 168.989 123.513 170.104C120.823 171.218 117.94 171.792 115.028 171.792H100.027ZM138.542 152.872L143.13 157.461C144.16 158.491 145.382 159.308 146.728 159.865C148.073 160.422 149.515 160.709 150.972 160.708H174.562C176.388 160.708 178.184 160.258 179.794 159.397C181.403 158.535 182.774 157.29 183.786 155.771C184.798 154.253 185.42 152.507 185.595 150.691C185.771 148.874 185.495 147.042 184.792 145.358L170.938 112.108C170.096 110.089 168.675 108.364 166.855 107.152C165.034 105.939 162.896 105.291 160.708 105.292H105.292C103.104 105.291 100.966 105.939 99.1451 107.152C97.3247 108.364 95.9039 110.089 95.0617 112.108L81.2076 145.358C80.5049 147.042 80.2291 148.874 80.4046 150.691C80.5801 152.507 81.2015 154.253 82.2137 155.771C83.2258 157.29 84.5973 158.535 86.2064 159.397C87.8155 160.258 89.6124 160.708 91.4375 160.708H115.028C116.485 160.709 117.927 160.422 119.272 159.865C120.618 159.308 121.84 158.491 122.87 157.461L127.458 152.872V140.016C126.206 140.736 125.075 141.723 124.133 142.975L120.808 147.408C120.292 148.097 119.623 148.655 118.853 149.04C118.084 149.425 117.235 149.625 116.375 149.625H99.75C98.8058 149.624 97.8773 149.383 97.0527 148.923C96.2281 148.463 95.5348 147.799 95.0385 146.996C94.5422 146.193 94.2594 145.276 94.2169 144.333C94.1744 143.389 94.3737 142.451 94.7958 141.606L100.337 130.523C100.649 129.849 101.092 129.245 101.641 128.746C102.191 128.246 102.834 127.863 103.535 127.617C104.235 127.372 104.978 127.269 105.718 127.316C106.459 127.363 107.183 127.558 107.847 127.89C108.51 128.222 109.101 128.684 109.583 129.248C110.065 129.813 110.428 130.468 110.652 131.176C110.876 131.883 110.955 132.629 110.885 133.368C110.816 134.107 110.598 134.824 110.246 135.477L108.716 138.542H113.604L115.267 136.325C124.133 124.505 141.867 124.505 150.733 136.325L152.396 138.542H157.284L155.754 135.477C155.402 134.824 155.184 134.107 155.115 133.368C155.045 132.629 155.124 131.883 155.348 131.176C155.572 130.468 155.935 129.813 156.417 129.248C156.899 128.684 157.49 128.222 158.153 127.89C158.817 127.558 159.541 127.363 160.282 127.316C161.022 127.269 161.765 127.372 162.465 127.617C163.166 127.863 163.809 128.246 164.359 128.746C164.908 129.245 165.351 129.849 165.663 130.523L171.204 141.606C171.626 142.451 171.826 143.389 171.783 144.333C171.741 145.276 171.458 146.193 170.961 146.996C170.465 147.799 169.772 148.463 168.947 148.923C168.123 149.383 167.194 149.624 166.25 149.625H149.625C148.765 149.625 147.916 149.425 147.147 149.04C146.377 148.655 145.708 148.097 145.192 147.408L141.867 142.975C140.97 141.774 139.839 140.767 138.542 140.016V152.872Z" fill="black"/>
<path d="M141.99 118.646L120.057 118.452C120.057 118.452 119.854 119.493 120.275 120.544C120.663 121.513 122.227 122.908 122.227 122.908L124.063 126.953L125.575 136.383L125.865 139.11C125.865 139.11 126.94 141.121 133.019 141.121C139.098 141.121 140.159 139.038 140.159 139.038L140.367 137.284L142.058 127.544L145.439 121.707C145.439 121.707 146.18 121.189 146.611 120.084C146.911 119.314 146.751 118.229 146.751 118.355C146.751 118.481 141.99 118.646 141.99 118.646Z" fill="#E27F13"/>
<path d="M133.407 128.866C138.333 128.895 140.711 128.585 142.16 127.568C143.249 126.803 143.782 125.936 144.523 124.7C145.55 122.991 145.507 121.678 145.507 121.678C145.507 121.678 141.399 123.795 133.276 123.688C125.303 123.586 121.026 121.688 121.026 121.688C121.026 121.688 121.414 123.567 122.058 124.788C122.804 126.192 124.165 127.083 124.165 127.083C124.165 127.083 126.747 128.827 133.407 128.866ZM125.013 129.278C125.502 129.457 126.01 129.626 126.01 129.626L126.737 138.282C126.737 138.282 125.434 137.841 125.284 137.376C125.197 137.11 124.79 134.238 124.499 131.903C124.344 130.653 124.204 129.811 124.165 129.365C124.121 128.881 124.552 129.108 125.013 129.278ZM130.249 130.498C128.602 130.29 127.289 130.014 127.289 130.014C127.313 130.193 127.909 138.558 127.909 138.558C127.909 138.558 128.549 138.965 130.346 139.188L130.249 130.498ZM134.555 130.639C133.329 130.707 131.963 130.619 131.508 130.605L131.469 139.29C131.944 139.319 132.467 139.333 133.053 139.328C133.557 139.324 134.032 139.295 134.492 139.256L134.555 130.639ZM140.193 130.077C139.96 132.053 139.471 136.335 139.278 138.103C140.193 137.769 140.556 137.594 140.677 137.134C140.798 136.674 141.753 130.096 141.777 129.738C141.796 129.51 141.69 129.471 141.099 129.718C140.726 129.883 140.547 129.951 140.193 130.077ZM139.035 130.256C138.193 130.397 137.083 130.537 135.775 130.644L135.616 139.115C136.672 138.941 137.573 138.684 138.309 138.413C138.507 136.369 138.905 131.869 139.035 130.256Z" fill="#F5B03E"/>
<path d="M129.915 88.5853C130.467 88.5369 129.847 86.2168 131.237 86.1877C133.14 86.1441 132.598 89.0697 131.731 89.9513C129.435 92.2908 125.846 91.8403 124.993 95.6572C124.436 98.1421 126.955 99.0333 126.955 99.0333C126.955 99.0333 122.799 98.796 120.862 102.85C119.278 106.168 121.191 108.474 121.191 108.474C121.191 108.474 118.997 108.89 118.091 112.029C116.933 116.04 120.28 118.684 120.28 118.684L134.671 119.842L148.771 113.351L148.689 110.169C148.689 110.169 148.04 109.234 147.4 108.672C146.688 108.048 145.918 107.534 145.918 107.534L146.824 103.306C146.824 103.306 146.969 100.724 143.438 98.0549C141.854 96.8536 140.135 96.5194 140.135 96.5194C140.135 96.5194 139.127 90.4889 138.924 90.0772C138.716 89.6655 136.444 86.023 136.027 85.776C135.616 85.5289 132.767 83.0296 132.767 83.0296C132.767 83.0296 130.733 82.3418 129.367 84.0807C128.001 85.8196 128.466 88.7113 129.915 88.5853Z" fill="#FFCAF9"/>
<path d="M135.911 94.6255C133.015 98.5102 126.945 99.0285 126.945 99.0285C126.945 99.0285 128.883 100.375 134.666 99.9197C140.711 99.445 142.111 96.7374 142.029 93.7585C141.946 90.7796 139.883 87.6263 136.836 85.1269C133.983 82.7922 131.828 82.9133 131.828 82.9133C131.828 82.9133 134.114 83.606 135.848 85.9649C137.679 88.4497 137.558 92.4119 135.911 94.6255ZM121.191 108.469C121.191 108.469 125.202 110.716 134.671 110.629C143.559 110.547 146.044 107.65 146.044 107.65C146.044 107.65 147.057 106.27 146.974 103.955C146.892 101.542 145.54 100.147 145.54 100.147C145.54 100.147 143.027 103.393 139.636 105.296C136.245 107.2 129.706 108.072 126.693 108.275C123.632 108.474 121.191 108.469 121.191 108.469ZM148.689 110.169C148.689 110.169 150.016 111.656 149.556 114.054C149.018 116.868 146.785 118.767 146.785 118.767C146.785 118.767 144.426 121.13 132.772 121.218C122.349 121.295 120.101 118.529 120.101 118.529C120.101 118.529 130.961 118.99 138.13 116.568C144.165 114.533 145.424 113.71 147.245 111.893C147.87 111.273 148.689 110.169 148.689 110.169Z" fill="#EA84D4"/>
<path d="M120.571 116.524C121.457 116.422 120.958 113.928 122.043 112.518C123.133 111.109 123.637 110.707 123.4 110.155C123.167 109.602 120.886 109.535 119.898 111.981C119.079 114.02 119.873 116.602 120.571 116.524ZM128.273 100.869C128.321 101.756 126.713 101.557 124.921 103.766C123.468 105.558 123.666 107.432 122.775 107.52C121.888 107.602 121.53 104.463 122.726 102.681C124.417 100.152 128.205 99.7163 128.273 100.869ZM131.997 91.9082C132.336 92.1213 131.896 93.0803 130.375 94.238C128.563 95.6136 127.895 96.6986 127.226 96.5146C126.737 96.3789 126.272 95.3424 127.26 94.2041C128.016 93.3322 129.498 92.9302 130.21 92.596C131.242 92.1068 131.678 91.7047 131.997 91.9082Z" fill="white"/>
<path d="M129 49C126 46.3333 123 46.3333 120 49" stroke="black" stroke-width="2"/>
<path d="M146 49C143 46.3333 140 46.3333 137 49" stroke="black" stroke-width="2"/>
<path d="M142 60.5C142 63.2614 138.09 67 134.5 67C130.91 67 126 63.2614 126 60.5C126 57.7386 130.91 57 134.5 57C138.09 57 142 57.7386 142 60.5Z" fill="black"/>
<path d="M141.308 62.5C141.308 62.9999 138.517 66.4999 136.308 66.4999C134.099 66.4999 134.308 64.9329 134.308 62.9999C134.308 61.0669 136.099 59.4999 138.308 59.4999C140.517 59.4999 142.808 60.4999 141.308 62.5Z" fill="url(#paint0_linear_399_935)"/>
<defs>
<linearGradient id="paint0_linear_399_935" x1="138" y1="60" x2="138" y2="67" gradientUnits="userSpaceOnUse">
<stop stop-color="#F11ED8"/>
<stop offset="1" stop-color="#834E7D"/>
</linearGradient>
</defs>
</svg>
